# xmcd
#
# Track frame offsets: 
#        150
#        20352
#        35330
#        56465
#        81410
#        105102
#        126865
#        141630
#        166967
#        185115
#        202115
#        225840
#
# Disc length: 3265 seconds
#
# Revision: 2
# Processed by: cddbd v1.5.2PL0 Copyright (c) Steve Scherf et al.
# Submitted via: ExactAudioCopyFreeDBPlugin 1.0
#
DISCID=9e0cbf0c
DTITLE=德德玛 - 二十世纪中华歌坛名人百集珍藏版之德德玛
DYEAR=1998
DGENRE=Folk
TTITLE0=草原夜色美
TTITLE1=美丽的草原我的家
TTITLE2=草原上的风
TTITLE3=达古拉
TTITLE4=天上的风
TTITLE5=达那巴拉
TTITLE6=阿尔斯楞的眼睛
TTITLE7=辽阔的草原
TTITLE8=远去的母亲
TTITLE9=雕花的马鞍
TTITLE10=牧村的黄昏
TTITLE11=蓝色的蒙古高原
EXTD=
EXTT0=
EXTT1=
EXTT2=
EXTT3=
EXTT4=
EXTT5=
EXTT6=
EXTT7=
EXTT8=
EXTT9=
EXTT10=
EXTT11=
PLAYORDER=
